<svg width="1000" height="1000" viewBox="0 0 1000 1000" fill="none" xmlns="http://www.w3.org/2000/svg">
<rect width="1000" height="1000" fill="black"/>
<path fill-rule="evenodd" clip-rule="evenodd" d="M500 852C694.404 852 852 694.404 852 500C852 305.596 694.404 148 500 148C305.596 148 148 305.596 148 500C148 694.404 305.596 852 500 852ZM500 900C720.914 900 900 720.914 900 500C900 279.086 720.914 100 500 100C279.086 100 100 279.086 100 500C100 720.914 279.086 900 500 900ZM253.6 308.4C253.6 302.877 258.077 298.4 263.6 298.4H413.6V701.6C325.234 701.6 253.6 629.965 253.6 541.6V308.4ZM445.6 308.4C445.6 302.877 450.077 298.4 455.6 298.4H605.6V399.452C602.688 399.284 599.754 399.2 596.8 399.2C516.248 399.2 450.409 462.19 445.852 541.6H445.6V308.4ZM542.42 541.6H445.852C445.685 544.512 445.6 547.446 445.6 550.4C445.6 633.905 513.295 701.6 596.8 701.6C680.305 701.6 748 633.905 748 550.4C748 469.848 685.01 404.009 605.6 399.452V495.767C602.987 495.393 600.316 495.2 597.6 495.2C569.945 495.2 546.972 515.246 542.42 541.6ZM542.42 541.6H605.6V495.767C632.738 499.649 653.6 522.988 653.6 551.2C653.6 582.128 628.528 607.2 597.6 607.2C566.672 607.2 541.6 582.128 541.6 551.2C541.6 547.927 541.881 544.719 542.42 541.6Z" fill="#4488EE"/>
</svg>
