<svg width="50" height="50" viewBox="0 0 50 50" fill="none" xmlns="http://www.w3.org/2000/svg">
<g clip-path="url(#clip0_35_178)">
<path d="M42.5031 7.24941C40.2108 4.94205 37.4811 3.11277 34.4728 1.86816C31.4646 0.623543 28.238 -0.0115106 24.9813 1.15973e-06C11.3344 1.15973e-06 0.2125 11.0892 0.2 24.7028C0.2 29.0631 1.34375 33.3049 3.50313 37.0605L0 49.8669L13.1375 46.4323C16.7719 48.4049 20.8435 49.4389 24.9813 49.4399H24.9937C38.6437 49.4399 49.7625 38.3508 49.775 24.7246C49.7781 21.4772 49.1369 18.2612 47.8883 15.262C46.6398 12.2628 44.8085 9.53964 42.5 7.24941H42.5031ZM24.9813 45.2574C21.2906 45.2586 17.6678 44.2681 14.4937 42.39L13.7437 41.9412L5.95 43.9795L8.03125 36.3966L7.54375 35.6143C5.48065 32.3428 4.38952 28.5551 4.39687 24.6904C4.39687 13.3893 13.6375 4.17012 24.9937 4.17012C27.6992 4.16528 30.3788 4.69458 32.8782 5.7275C35.3775 6.76043 37.6472 8.27654 39.5563 10.1884C41.472 12.0929 42.9907 14.3568 44.0248 16.8495C45.0588 19.3423 45.5878 22.0145 45.5813 24.7122C45.5688 36.0538 36.3281 45.2574 24.9813 45.2574ZM36.2781 29.8796C35.6625 29.5711 32.6219 28.0782 32.05 27.8663C31.4812 27.6637 31.0656 27.5577 30.6594 28.1748C30.2437 28.7888 29.0562 30.1882 28.7 30.5902C28.3438 31.0048 27.975 31.0515 27.3562 30.7461C26.7406 30.4344 24.7437 29.7861 22.3813 27.6761C20.5375 26.0399 19.3031 24.014 18.9344 23.4001C18.5781 22.783 18.9 22.4526 19.2094 22.144C19.4812 21.8698 19.825 21.421 20.1344 21.0657C20.4469 20.7104 20.55 20.4486 20.7531 20.0372C20.9562 19.6195 20.8594 19.2642 20.7062 18.9557C20.55 18.6471 19.3156 15.6021 18.7938 14.3741C18.2938 13.1618 17.7844 13.3301 17.4031 13.3145C17.0469 13.2927 16.6313 13.2927 16.2156 13.2927C15.9018 13.3004 15.5929 13.3728 15.3084 13.5053C15.0239 13.6378 14.77 13.8275 14.5625 14.0625C13.9937 14.6796 12.4031 16.1725 12.4031 19.2175C12.4031 22.2625 14.6219 25.189 14.9344 25.6036C15.2406 26.0181 19.2906 32.2483 25.5062 34.9287C26.975 35.5676 28.1313 35.9447 29.0344 36.2314C30.5188 36.7052 31.8594 36.6335 32.9281 36.4808C34.1156 36.3 36.5875 34.9848 37.1094 33.5417C37.6219 32.0956 37.6219 30.8614 37.4656 30.6027C37.3125 30.3409 36.8969 30.1882 36.2781 29.8796Z" fill="#25D366"/>
</g>
<defs>
<clipPath id="clip0_35_178">
<rect width="50" height="49.8669" fill="white"/>
</clipPath>
</defs>
</svg>
