<svg width="900" height="117" viewBox="0 0 900 117" fill="none" xmlns="http://www.w3.org/2000/svg">
<path fill-rule="evenodd" clip-rule="evenodd" d="M82.787 50.3452C72.0684 63.3558 63.3243 73.7265 56.5547 81.4574C33.4251 81.4574 16.7831 85.4643 6.6286 93.4781C2.20953 96.9664 0 100.172 0 103.095C0 107.149 2.02149 110.354 6.06446 112.711C10.1074 115.162 14.4325 116.388 19.0396 116.388C23.5527 116.388 30.3223 114.361 39.3485 110.307C48.3747 106.253 55.3794 101.869 60.3626 97.155C63.7474 97.0607 69.1067 97.0135 76.4405 97.0135C83.8683 97.0135 92.0012 97.5321 100.839 98.5692C109.677 99.6062 115.413 100.455 118.046 101.115C120.772 101.775 122.841 102.293 124.251 102.67C125.003 103.047 125.614 103.236 126.084 103.236C126.367 103.236 126.508 103.047 126.508 102.67C126.508 102.293 125.99 101.539 124.956 100.408C123.839 99.1237 122.71 97.9063 121.569 96.7553C123.153 97.6817 125.116 98.1449 127.456 98.1449C133.568 98.1449 141.466 95.5522 151.15 90.3668C157.276 87.0271 162.95 83.5743 168.173 80.0082C166.721 83.1628 165.995 85.8143 165.995 87.9627C165.995 92.0167 166.935 95.2222 168.816 97.5792C170.79 99.9362 172.906 101.115 175.162 101.115C177.513 101.115 179.534 100.879 181.227 100.408C185.928 98.8991 194.202 93.3366 206.049 83.7201C207.78 82.3534 209.555 80.9143 211.373 79.4028C212.019 79.8168 212.735 80.0888 213.475 80.2134C212.424 82.7317 211.898 84.8434 211.898 86.5485C211.898 94.2794 215.518 98.1449 222.758 98.1449L228.258 97.4378C232.489 96.0236 238.977 92.0167 247.721 85.4172C249.547 84.039 251.326 82.6773 253.057 81.332C253.058 81.3321 253.059 81.3322 253.059 81.3324C252.679 83.056 252.488 84.7947 252.488 86.5485C252.488 94.2794 256.108 98.1449 263.348 98.1449C269.46 98.1449 277.357 95.5522 287.042 90.3668C296.726 85.0872 305.282 79.5247 312.71 73.6794C312.784 73.6219 312.858 73.5644 312.932 73.507C312.898 73.5644 312.865 73.6218 312.831 73.6794C309.54 79.2419 307.895 83.5316 307.895 86.5485C307.895 94.2794 311.515 98.1449 318.755 98.1449C320.729 98.1449 322.562 97.9092 324.255 97.4378C328.363 96.1873 334.245 92.6985 341.902 86.9715C341.496 88.0522 341.292 88.9955 341.292 89.8012C341.292 92.2524 341.857 94.138 342.985 95.4579C344.113 96.7778 345.053 97.5321 345.806 97.7206C346.464 98.0035 347.028 98.192 347.498 98.2863C350.319 98.2863 353.986 96.6836 358.499 93.4781C363.106 90.1783 366.35 87.5856 368.23 85.7C370.11 83.7201 371.662 82.0703 372.884 80.7503C373.26 80.3732 373.495 80.1847 373.589 80.1847C373.777 80.1847 373.871 80.3261 373.871 80.6089L372.743 89.6597C372.743 92.5824 373.119 94.6094 373.871 95.7408C374.624 96.8721 375.893 97.4378 377.679 97.4378C379.466 97.4378 383.979 94.8451 391.219 89.6597C394.227 87.4913 397.612 84.8986 401.373 81.8817C405.228 78.7705 408.613 75.9892 411.527 73.538C414.536 70.9924 417.639 68.3526 420.836 65.6185C424.032 62.8844 426.148 61.0459 427.182 60.1031C428.31 59.1604 429.251 58.359 430.003 57.699C430.755 57.0391 431.131 56.2377 431.131 55.2949C431.131 54.3521 430.708 53.5507 429.862 52.8908C409.271 68.164 394.18 78.1105 384.59 82.7302C384.778 80.9389 385.906 78.5819 387.975 75.6593C389.197 73.9622 390.372 72.4538 391.501 71.1338C392.629 69.7197 394.509 67.4569 397.142 64.3457C399.775 61.2345 402.078 58.4533 404.053 56.002C405.369 54.8706 406.027 53.8336 406.027 52.8908C406.027 51.948 405.745 51.2409 405.181 50.7695C404.617 50.2038 404.053 49.8738 403.489 49.7795C402.454 48.6482 401.561 48.0825 400.809 48.0825C400.057 48.0825 399.21 48.5539 398.27 49.4967C397.236 47.0454 395.826 45.7727 394.039 45.6784C389.338 45.6784 383.791 47.4697 377.397 51.0523C371.098 54.6349 365.362 58.8775 360.191 63.78C359.345 64.5664 358.52 65.3565 357.714 66.1505C346.945 73.2735 336.027 79.7429 324.96 85.5586C323.362 86.1243 322.233 86.4071 321.575 86.4071C320.447 86.4071 319.883 85.8886 319.883 84.8515C319.883 83.8144 320.259 82.6359 321.011 81.316C322.233 78.0162 324.631 73.9622 328.204 69.154C331.871 64.2514 334.597 60.8102 336.384 58.8304C338.264 56.8505 339.628 55.3892 340.474 54.4464C341.414 53.5036 341.884 52.7965 341.884 52.3251C341.884 51.8537 341.602 51.4766 341.038 51.1937C339.252 50.4395 337.371 50.0624 335.397 50.0624C333.422 50.0624 331.589 50.5809 329.896 51.618C328.8 52.0758 326.596 54.3568 323.283 58.4609L322.582 58.9718C307.351 69.8139 295.88 77.262 288.17 81.316C280.46 85.37 273.126 87.397 266.169 87.397C264.664 87.397 263.912 86.4071 263.912 84.4272C263.912 80.1847 267.532 74.2451 274.772 66.6084C275.653 65.6787 276.54 64.7972 277.433 63.9639L286.96 58.2318C287.777 57.7407 288.352 57.0004 288.648 56.1661C291.584 54.7907 294.574 53.8875 297.619 53.4564C298.089 53.4564 298.324 53.6921 298.324 54.1635C298.324 54.6349 298.23 55.0592 298.042 55.4363C296.538 57.5105 292.965 60.1974 287.324 63.4972C286.478 63.78 286.055 64.2043 286.055 64.77C286.055 66.1842 287.277 66.8913 289.721 66.8913C295.551 66.8913 300.487 65.2414 304.53 61.9416C308.667 58.6418 310.783 55.2949 310.877 51.9008L310.594 50.4866C310.5 49.5438 309.701 48.6011 308.197 47.6583C306.693 46.7155 304.201 46.2441 300.722 46.2441C297.337 46.2441 292.824 47.3283 287.183 49.4967C281.541 51.5709 276.135 54.3521 270.964 57.8404C267.74 60.0154 264.826 62.5202 262.223 65.3549L260.66 66.6612C259.231 67.5877 257.785 68.5129 256.324 69.4368C247.768 74.905 241.045 78.959 236.156 81.5989L228.963 85.5586C227.365 86.1243 226.237 86.4071 225.578 86.4071C224.45 86.4071 223.886 85.9357 223.886 84.9929C223.886 84.0501 224.262 82.8245 225.014 81.316C226.237 78.0162 228.493 74.1036 231.784 69.5782C232.857 68.1137 233.897 66.7345 234.904 65.4406L246.142 56.4252C248.575 54.4736 248.97 50.9138 247.023 48.4743C245.077 46.0347 241.527 45.6392 239.094 47.5908L234.6 51.196C233.788 51.5802 232.735 52.4252 231.44 53.7309L210.887 70.2179C210.616 70.4356 210.37 70.6733 210.15 70.9273C201.119 76.969 191.948 82.7417 182.637 88.2456C181.133 88.8112 180.004 89.0941 179.252 89.0941C178.594 89.0941 178.03 88.9527 177.56 88.6698C177.09 88.2927 176.855 87.8684 176.855 87.397C176.855 84.4744 179.769 79.3362 185.599 71.9824C191.428 64.6286 197.54 57.8876 203.933 51.7594C210.421 45.6312 214.558 42.52 216.344 42.4258C220.387 42.2372 227.815 41.5772 238.627 40.4459C241.061 40.1724 243.268 39.9224 245.247 39.6959C245.54 39.8188 245.895 39.8802 246.31 39.8802C248.253 39.8802 250.404 39.5261 252.764 38.8178C255.257 38.5175 256.892 38.3059 257.667 38.1832C259.547 37.9003 260.488 37.3818 260.488 36.6276C260.488 36.3215 260.398 36.0319 260.217 35.7587C261.463 35.1302 262.751 34.4299 264.081 33.6578C268.594 31.1122 271.838 28.001 273.812 24.3241L274.094 21.0715C274.094 19.2802 273.577 17.536 272.543 15.839C271.603 14.1419 270.38 13.2934 268.876 13.2934C267.372 13.2934 266.149 13.9534 265.209 15.2733L263.658 18.1017C262.623 19.9872 260.555 22.5328 257.452 25.7383C255.413 27.7826 253.151 29.6844 250.666 31.4437C246.983 30.5628 242.453 30.1223 237.076 30.1223L229.883 30.2637C228.567 30.2637 227.909 29.9337 227.909 29.2738C228.003 28.5195 228.285 27.3882 228.755 25.8797L232.281 20.93C233.033 19.7044 233.409 18.8559 233.409 18.3845C233.409 16.9703 231.717 16.2632 228.332 16.2632C224.947 16.2632 222.973 16.8289 222.409 17.9602L212.677 30.9708C200.266 31.9136 189.171 33.0921 179.393 34.5063C169.709 35.9205 164.538 36.6747 163.879 36.769C163.221 36.8633 162.751 36.9575 162.469 37.0518C162.187 37.0518 161.858 37.099 161.482 37.1932C161.106 37.1932 160.918 37.3818 160.918 37.7589C160.918 38.8903 162.375 39.7388 165.29 40.3045C165.666 43.1328 172.106 44.547 184.611 44.547L193.497 44.2642C195.471 44.2642 196.458 44.547 196.458 45.1127C196.458 45.6784 196.035 46.2912 195.189 46.9512C188.095 53.2493 182.163 59.4309 177.392 65.4961C166.984 72.6414 158.519 77.8675 151.996 81.1746C143.628 85.3229 135.871 87.397 128.726 87.397C127.597 87.0199 127.033 86.0771 127.033 84.5687C127.033 82.9659 127.785 80.9389 129.29 78.4876C130.794 75.9421 131.875 74.6693 132.533 74.6693C133.192 74.6693 133.709 74.8107 134.085 75.0936C134.837 76.5078 135.965 77.2149 137.47 77.2149C139.068 77.2149 142.265 76.0364 147.06 73.6794C151.949 71.2281 156.603 68.0698 161.022 64.2043C165.441 60.2446 167.651 56.7091 167.651 53.5979C167.651 51.9008 166.664 50.1567 164.689 48.3654C162.809 46.574 160.74 45.6784 158.484 45.6784C153.406 45.6784 147.577 47.7054 140.995 51.7594C134.414 55.7192 128.679 60.8574 123.789 67.1741C118.994 73.3965 116.597 79.289 116.597 84.8515C116.597 88.8156 117.321 91.8932 118.769 94.0841C116.188 91.7611 113.549 89.7678 110.853 88.1041C108.972 86.9728 106.434 86.03 103.237 85.2758C100.04 84.5215 97.5956 84.0501 95.9032 83.8616C94.3048 83.5787 91.155 83.2487 86.4539 82.8716C81.7527 82.4945 78.2269 82.1645 75.8763 81.8817C77.0046 80.6561 77.9448 79.619 78.697 78.7705C83.3041 73.7737 93.3645 60.386 108.878 38.6074C112.921 33.1392 116.917 28.331 120.866 24.1827C124.909 19.9401 128.247 16.8289 130.88 14.849C133.606 12.7749 136.192 11.0778 138.636 9.75792C141.081 8.34373 142.679 7.54236 143.432 7.3538C144.184 7.16524 144.842 6.97668 145.406 6.78812C146.064 6.59956 146.628 6.50528 147.099 6.50528C147.663 6.50528 147.945 6.69384 147.945 7.07096C147.945 9.80507 143.009 15.5561 133.136 24.3241C123.358 33.0921 114.52 39.6445 106.622 43.9814C105.964 44.3585 105.635 44.6885 105.635 44.9713C105.635 45.2541 106.246 45.3956 107.468 45.3956C108.784 45.3956 110.806 45.1599 113.532 44.6885C120.772 42.52 127.307 39.6916 133.136 36.2033C139.06 32.6207 143.573 29.1323 146.675 25.7383C152.975 18.8559 156.125 13.7648 156.125 10.465C156.125 7.07096 154.855 4.57256 152.317 2.96981C149.872 1.36705 147.663 0.565678 145.688 0.565678C136.85 0.565678 128.153 3.77118 119.597 10.1822C115.93 13.0106 111.558 17.1589 106.481 22.6271C101.403 28.0953 93.5056 37.3347 82.787 50.3452ZM11.1417 109.034C8.88515 108.751 7.75687 108.139 7.75687 107.196C7.75687 105.027 11.7058 102.859 19.6037 100.69C27.4076 98.522 34.3183 97.4378 40.3357 97.4378C35.9167 100.926 31.7327 103.566 27.7837 105.357C23.7407 107.149 20.685 108.186 18.6165 108.468C16.548 108.846 14.0564 109.034 11.1417 109.034ZM145.085 60.5274C150.915 55.4363 155.052 52.8908 157.496 52.8908C158.061 52.8908 158.343 53.1265 158.343 53.5979C158.343 55.2949 155.24 58.4533 149.034 63.0729C142.923 67.6926 138.833 70.0025 136.764 70.0025C136.482 70.0025 136.341 69.9082 136.341 69.7196C136.341 68.5883 139.256 65.5242 145.085 60.5274ZM356.693 26.1625C356.411 25.7854 355.8 25.5969 354.859 25.5969C352.697 25.5969 349.923 26.9639 346.538 29.698C343.153 32.3379 341.461 35.072 341.461 37.9003C341.461 39.6916 342.307 40.7287 344 41.0116C346.256 41.0116 348.56 40.2573 350.91 38.7489C353.355 37.1461 354.953 35.9205 355.706 35.072C356.552 34.1292 357.257 33.3278 357.821 32.6678C358.385 31.9136 358.667 31.0651 358.667 30.1223C358.667 29.0852 358.009 27.7653 356.693 26.1625ZM368.653 76.7906C362.918 81.4103 359.486 83.7201 358.358 83.7201C358.17 83.7201 358.076 83.6259 358.076 83.4373C358.076 81.8346 360.144 78.7705 364.281 74.2451C368.512 69.6254 373.495 65.2885 379.231 61.2345C384.966 57.0862 389.62 55.0121 393.193 55.0121C393.475 55.0121 393.616 55.1063 393.616 55.2949C393.616 55.3892 393.428 55.6249 393.052 56.002L385.154 62.9315C379.983 67.5512 374.483 72.1709 368.653 76.7906ZM479.738 5.51535C468.08 9.19225 457.69 14.1891 448.57 20.5058C439.45 26.7282 434.89 32.9978 434.89 39.3145C434.89 41.3887 435.971 43.8399 438.133 46.6683C440.39 49.4024 443.211 50.7695 446.595 50.7695C449.98 50.7695 454.681 48.7896 460.699 44.8299C466.81 40.7759 471.605 35.8733 475.084 30.1223C474.802 29.6509 474.426 29.4152 473.956 29.4152C473.58 29.4152 472.64 29.9809 471.135 31.1122C469.631 32.1493 465.4 34.3177 458.442 37.6175C451.579 40.823 446.642 42.4258 443.634 42.4258C443.164 42.4258 442.928 42.1429 442.928 41.5772C442.928 41.0116 444.057 39.6916 446.313 37.6175C448.57 35.5434 452.002 33.0921 456.609 30.2637C461.216 27.4353 466.387 24.7484 472.123 22.2028C477.952 19.563 484.91 17.3474 492.996 15.5561C501.176 13.6705 509.45 12.7277 517.818 12.7277C530.981 12.7277 537.562 14.3776 537.562 17.6774C537.562 20.6943 534.083 24.5127 527.126 29.1323C520.262 33.752 513.163 37.6646 505.83 40.8701C498.496 44.0756 493.795 45.6784 491.726 45.6784C491.444 45.6784 491.303 45.6312 491.303 45.537C491.303 45.3484 491.397 45.0656 491.585 44.6885L511.471 23.1927C512.317 22.7213 512.74 22.1085 512.74 21.3543C512.364 20.1287 511.847 19.233 511.189 18.6673C510.625 18.0074 509.873 17.6774 508.932 17.6774C506.864 17.6774 497.979 25.1726 482.277 40.163C466.575 55.1535 457.643 65.0057 455.481 69.7196L452.66 73.6794C450.779 76.3192 448.899 79.5247 447.018 83.2959C445.138 86.9728 444.198 89.6126 444.198 91.2154C444.198 92.7238 444.856 94.8451 446.172 97.5792C447.583 100.408 449.04 101.822 450.544 101.822C451.202 101.822 451.673 101.35 451.955 100.408V100.549C452.049 100.549 452.989 98.4749 454.775 94.3266C456.562 90.1783 457.784 88.1041 458.442 88.1041C458.724 88.1041 459.053 88.3398 459.429 88.8112C460.464 90.6968 462.25 92.5353 464.789 94.3266C466.011 95.1751 467.609 95.8822 469.584 96.4479C471.558 97.1078 473.768 97.4378 476.212 97.4378C478.751 97.4378 482.935 96.5421 488.765 94.7508C494.594 92.9595 500.846 90.5554 507.522 87.5385C514.198 84.4272 519.98 80.3732 524.869 75.3764C529.852 70.2853 532.344 64.9585 532.344 59.396C532.344 55.342 531.357 52.278 529.382 50.2038C527.502 48.1297 524.728 46.3383 521.061 44.8299L520.215 44.1228C520.215 43.7457 520.544 43.4628 521.202 43.2743L522.754 42.4258C527.737 39.2202 531.592 36.2976 534.319 33.6578C539.678 28.4724 542.357 23.947 542.357 20.0815C542.357 16.876 540.618 13.1048 537.139 8.76799C535.071 6.22245 531.686 4.1483 526.985 2.54555C522.378 0.848515 516.266 0 508.65 0C501.034 0 491.397 1.83845 479.738 5.51535ZM520.074 50.6281C521.296 50.7223 522.472 51.0523 523.6 51.618C524.822 52.1837 525.433 52.9379 525.433 53.8807C525.433 57.7462 521.861 62.413 514.715 67.8812C507.569 73.2551 499.107 77.922 489.329 81.8817C479.55 85.7472 471.135 87.6799 464.084 87.6799H462.391C460.981 87.6799 460.041 87.2556 459.57 86.4071V86.2657L483.969 53.5979C484.628 52.9379 485.239 52.6079 485.803 52.6079C486.273 52.6079 486.602 52.8908 486.79 53.4564C487.072 53.9278 487.448 54.4464 487.918 55.0121C488.482 55.5777 489.141 55.8606 489.893 55.8606C490.645 55.8606 492.572 55.4363 495.675 54.5878C504.795 51.948 512.317 50.6281 518.241 50.6281H520.074ZM550.602 57.5576C544.961 61.7059 539.555 65.5714 534.384 69.154C532.879 70.3796 532.127 71.3695 532.127 72.1238C532.127 72.7837 533.255 73.1137 535.512 73.1137C537.768 73.1137 539.602 72.5952 541.012 71.5581C547.03 66.467 551.261 62.8372 553.705 60.6688C554.457 61.8002 556.197 62.7901 558.923 63.6386C561.65 64.3929 563.813 64.77 565.411 64.77C557.701 70.4267 552.624 74.9522 550.179 78.3462C547.829 81.646 546.654 85.0872 546.654 88.6698C546.654 95.2694 549.944 98.5692 556.526 98.5692C560.757 98.5692 567.527 95.2694 576.835 88.6698C579.125 87.0396 581.356 85.4037 583.529 83.7623C582.078 86.266 581.353 88.279 581.353 89.8012C581.353 92.2524 581.918 94.138 583.046 95.4579C584.174 96.7778 585.114 97.5321 585.866 97.7206C586.525 98.0035 587.089 98.192 587.559 98.2863C590.38 98.2863 594.046 96.6836 598.56 93.4781C603.167 90.1783 606.41 87.5856 608.291 85.7C610.171 83.7201 611.723 82.0703 612.945 80.7503C613.321 80.3732 613.556 80.1847 613.65 80.1847C613.838 80.1847 613.932 80.3261 613.932 80.6089L612.804 89.6597C612.804 92.5824 613.18 94.6094 613.932 95.7408C614.684 96.8721 615.954 97.4378 617.74 97.4378C619.527 97.4378 624.04 94.8451 631.279 89.6597C634.288 87.4913 637.673 84.8986 641.434 81.8817C645.289 78.7705 648.674 75.9892 651.588 73.538C654.597 70.9924 657.7 68.3526 660.897 65.6185C661.114 65.4322 661.327 65.2501 661.535 65.0721C659.6 68.0486 657.725 70.4463 655.911 72.2652C653.09 76.3192 648.201 81.5517 641.243 87.9627C640.773 88.7169 640.538 89.5655 640.538 90.5083C640.538 93.3366 642.089 94.7508 645.192 94.7508C646.32 94.7508 647.261 94.5151 648.013 94.0437C652.526 91.6868 662.963 83.673 679.323 70.0025C679.887 69.5311 680.169 69.3897 680.169 69.5782C680.169 69.6725 679.887 70.1439 679.323 70.9924L673.258 79.3362C671.001 82.5416 669.873 85.6057 669.873 88.5284C669.873 96.2593 673.493 100.125 680.733 100.125C684.494 100.125 691.075 96.4479 700.478 89.0941C700.945 88.7324 701.406 88.3744 701.861 88.0201C701.687 88.674 701.6 89.2678 701.6 89.8012C701.6 92.2524 702.164 94.138 703.293 95.4579C704.421 96.7778 705.361 97.5321 706.113 97.7206C706.772 98.0035 707.336 98.192 707.806 98.2863C710.627 98.2863 714.293 96.6836 718.807 93.4781C723.414 90.1783 726.657 87.5856 728.538 85.7C730.418 83.7201 731.97 82.0703 733.192 80.7503C733.568 80.3732 733.803 80.1847 733.897 80.1847C734.085 80.1847 734.179 80.3261 734.179 80.6089C734.179 80.7975 733.803 82.4002 733.051 85.4172C732.393 88.3398 732.064 90.5554 732.064 92.0639C732.064 93.5723 732.816 94.8923 734.32 96.0236C735.919 97.155 737.658 97.8621 739.539 98.1449C741.513 98.1449 743.346 97.9092 745.039 97.4378C749.736 96.008 756.753 91.6518 766.09 84.3694C764.868 86.5935 764.257 88.404 764.257 89.8012C764.257 92.2524 764.821 94.138 765.949 95.4579C767.078 96.7778 768.018 97.5321 768.77 97.7206C769.428 98.0035 769.992 98.192 770.462 98.2863C773.283 98.2863 776.95 96.6836 781.463 93.4781C786.07 90.1783 789.314 87.5856 791.194 85.7C793.075 83.7201 794.626 82.0703 795.849 80.7503C796.225 80.3732 796.46 80.1847 796.554 80.1847C796.742 80.1847 796.836 80.3261 796.836 80.6089L795.708 89.6597C795.708 92.5824 796.084 94.6094 796.836 95.7408C797.588 96.8721 798.857 97.4378 800.644 97.4378C802.43 97.4378 806.943 94.8451 814.183 89.6597C816.997 87.6313 820.141 85.2316 823.614 82.4607C823.107 84.2839 822.854 86.0236 822.854 87.6799C822.854 89.8483 823.23 91.6396 823.983 93.0538C825.299 95.8822 828.496 97.6735 833.573 98.4277C841.189 98.4277 850.309 92.2524 860.934 79.9018C862.062 80.0904 862.908 80.1847 863.472 80.1847C871.464 80.1847 883.217 72.9723 898.731 58.5475C899.577 57.7933 900 56.9448 900 56.002C900 55.0592 899.577 54.2578 898.731 53.5979L892.384 58.5475C888.153 61.753 883.217 64.9585 877.576 68.164C872.028 71.3695 867.938 72.9723 865.306 72.9723C870.665 64.77 873.345 58.029 873.345 52.7494C873.345 50.958 872.592 49.4496 871.088 48.2239C869.96 46.9983 868.878 46.4326 867.844 46.5269C866.81 46.5269 865.964 46.7626 865.306 47.234C864.741 47.6111 864.271 47.7997 863.895 47.7997C863.519 47.7054 863.096 47.4697 862.626 47.0926C862.156 46.6212 861.451 46.3855 860.51 46.3855C849.698 50.4395 840.719 56.8034 833.573 65.4771C832.789 66.4181 832.048 67.3449 831.351 68.2576C821.357 75.078 813.425 79.9022 807.554 82.7302C807.742 80.9389 808.871 78.5819 810.939 75.6593C812.161 73.9622 813.337 72.4538 814.465 71.1338C815.593 69.7197 817.474 67.4569 820.106 64.3457C822.739 61.2345 825.043 58.4533 827.017 56.002C828.333 54.8706 828.992 53.8336 828.992 52.8908C828.992 51.948 828.71 51.2409 828.145 50.7695C827.581 50.2038 827.017 49.8738 826.453 49.7795C825.419 48.6482 824.526 48.0825 823.773 48.0825C823.021 48.0825 822.175 48.5539 821.235 49.4967C820.201 47.0454 818.79 45.7727 817.004 45.6784C812.303 45.6784 806.755 47.4697 800.362 51.0523C796.383 53.3149 792.63 55.8407 789.101 58.6297C775.229 68.1464 762.939 75.9442 752.232 82.0231C747.342 84.8515 744.569 86.2657 743.911 86.2657C743.346 86.2657 743.064 86.1243 743.064 85.8414C743.064 82.5416 746.402 76.6492 753.078 68.164C759.847 59.6789 769.861 49.4024 783.118 37.3347C788.853 32.055 793.508 27.671 797.08 24.1827C800.747 20.6943 804.132 16.9232 807.235 12.8691C810.432 8.81513 812.03 5.60963 812.03 3.25264C812.03 1.74417 811.231 0.989938 809.632 0.989938C804.931 0.989938 798.303 4.99681 789.747 13.0106C781.285 20.93 773.951 28.8495 767.745 36.769C761.54 44.5942 758.484 48.8368 758.578 49.4967C757.45 46.9512 756.039 45.6784 754.347 45.6784C749.646 45.6784 744.146 47.4697 737.846 51.0523C731.547 54.6349 725.764 58.8775 720.499 63.78C718.933 65.2103 717.437 66.653 716.013 68.1082C715.865 68.2207 715.717 68.3336 715.568 68.4469C708.987 73.4437 703.674 77.3091 699.631 80.0432C695.682 82.7774 692.251 84.8044 689.336 86.1243C686.515 87.4442 684.541 88.1041 683.412 88.1041C682.378 88.1041 681.861 87.6799 681.861 86.8314C681.861 85.2286 682.143 83.343 682.707 81.1746C682.989 80.4204 683.506 79.5247 684.259 78.4876L686.233 75.5178C686.891 74.6693 687.926 73.4437 689.336 71.8409C690.746 70.2382 692.016 68.824 693.144 67.5984C694.272 66.2785 695.964 64.3929 698.221 61.9416C700.572 59.396 702.64 57.1333 704.427 55.1535C704.803 54.6821 704.991 54.0693 704.991 53.315C704.991 52.5608 704.521 51.948 703.58 51.4766L699.631 50.3452C699.349 50.1567 698.738 50.0624 697.798 50.0624C696.952 50.0624 695.87 50.5338 694.554 51.4766C687.502 57.2276 678.523 63.9215 667.617 71.5581L666.911 71.9824C666.817 71.9824 666.77 71.8881 666.77 71.6995C666.77 71.511 667.382 70.6624 668.604 69.154L679.181 54.4464C679.652 53.7864 679.887 53.1265 679.887 52.4665C679.887 51.5237 678.993 50.6752 677.207 49.921C675.515 49.1667 674.292 48.7896 673.54 48.7896C672.506 48.7896 671.096 50.1095 669.309 52.7494C669.076 53.1132 668.835 53.4905 668.585 53.8811C648.677 68.5948 634.032 78.2111 624.651 82.7302C624.839 80.9389 625.967 78.5819 628.036 75.6593C629.258 73.9622 630.433 72.4538 631.562 71.1338C632.69 69.7197 634.57 67.4569 637.203 64.3457C639.836 61.2345 642.139 58.4533 644.114 56.002C645.43 54.8706 646.088 53.8336 646.088 52.8908C646.088 51.948 645.806 51.2409 645.242 50.7695C644.678 50.2038 644.114 49.8738 643.549 49.7795C642.515 48.6482 641.622 48.0825 640.87 48.0825C640.118 48.0825 639.271 48.5539 638.331 49.4967C637.297 47.0454 635.887 45.7727 634.1 45.6784C629.399 45.6784 623.852 47.4697 617.458 51.0523C613.837 53.1118 610.402 55.3892 607.154 57.8848C581.091 76.1454 565.673 85.2758 560.898 85.2758C560.428 85.2758 560.193 85.1343 560.193 84.8515C560.193 83.0602 561.556 80.7032 564.283 77.7805C567.009 74.8579 569.924 72.2181 573.027 69.8611C576.13 67.5041 579.279 65.1942 582.476 62.9315C585.767 60.6688 587.694 59.3489 588.259 58.9718C588.917 58.5004 589.246 57.9347 589.246 57.2748C589.246 56.6148 588.07 54.7292 585.72 51.618C585.062 50.958 583.981 50.6281 582.476 50.6281C581.066 50.6281 579.138 51.0523 576.694 51.9008C574.249 52.6551 572.322 53.0322 570.911 53.0322C569.595 53.0322 566.398 51.7594 561.321 49.2139C556.244 46.6683 553.188 45.3956 552.154 45.3956C549.427 45.3956 547.453 45.7255 546.23 46.3855C545.008 46.9512 544.397 48.1768 544.397 50.0624C544.397 50.3452 544.538 50.8166 544.82 51.4766C545.666 53.4564 547.594 55.4835 550.602 57.5576ZM608.714 76.7906C602.979 81.4103 599.547 83.7201 598.419 83.7201C598.23 83.7201 598.136 83.6259 598.136 83.4373C598.136 81.8346 600.205 78.7705 604.342 74.2451C608.573 69.6254 613.556 65.2885 619.292 61.2345C625.027 57.0862 629.681 55.0121 633.254 55.0121C633.536 55.0121 633.677 55.1063 633.677 55.2949C633.677 55.3892 633.489 55.6249 633.113 56.002L625.215 62.9315C620.044 67.5512 614.543 72.1709 608.714 76.7906ZM728.961 76.7906C723.226 81.4103 719.794 83.7201 718.665 83.7201C718.477 83.7201 718.383 83.6259 718.383 83.4373C718.383 81.8346 720.452 78.7705 724.589 74.2451C728.82 69.6254 733.803 65.2885 739.539 61.2345C745.274 57.0862 749.928 55.0121 753.501 55.0121C753.783 55.0121 753.924 55.1063 753.924 55.2949C753.924 55.3892 753.736 55.6249 753.36 56.002L745.603 62.9315C740.338 67.5512 734.79 72.1709 728.961 76.7906ZM791.617 76.7906C785.882 81.4103 782.45 83.7201 781.322 83.7201C781.134 83.7201 781.04 83.6259 781.04 83.4373C781.04 81.8346 783.108 78.7705 787.245 74.2451C791.477 69.6254 796.46 65.2885 802.195 61.2345C807.93 57.0862 812.585 55.0121 816.157 55.0121C816.44 55.0121 816.581 55.1063 816.581 55.2949C816.581 55.3892 816.393 55.6249 816.016 56.002L808.119 62.9315C802.947 67.5512 797.447 72.1709 791.617 76.7906ZM801.49 36.6276C800.738 37.2875 800.362 37.9003 800.362 38.466C800.362 38.6546 800.738 38.7489 801.49 38.7489C802.242 38.7489 804.029 38.2775 806.849 37.3347C809.764 36.2976 811.926 35.7791 813.337 35.7791C816.063 35.7791 819.542 36.6747 823.773 38.466C828.098 40.2573 831.107 41.153 832.799 41.153C837.595 41.153 841.591 40.0216 844.787 37.7589C846.104 36.8161 847.42 35.6376 848.736 34.2234C850.053 32.715 850.711 31.4422 850.711 30.4051C850.711 29.4623 850.006 28.9909 848.595 28.9909L847.326 30.1223C844.975 32.385 843.001 33.5163 841.403 33.5163C837.454 33.5163 833.27 32.5264 828.851 30.5465C824.432 28.5667 821.705 27.5767 820.671 27.5767C818.038 27.5767 815.029 28.4253 811.644 30.1223C808.26 31.8193 805.909 33.1864 804.593 34.2234C803.276 35.1662 802.242 35.9676 801.49 36.6276ZM845.702 83.4373C841.283 87.397 837.569 89.3769 834.56 89.3769C834.09 89.3769 833.855 88.9998 833.855 88.2456C833.855 85.9828 835.641 81.8346 839.214 75.8007C841.471 72.2181 844.057 69.0597 846.971 66.3256C847.065 66.3256 847.723 67.5984 848.946 70.1439C850.262 72.5952 851.484 74.2922 852.613 75.235C852.424 76.7435 850.121 79.4776 845.702 83.4373ZM859.1 59.1132C862.109 56.1905 864.083 54.7292 865.024 54.7292C865.212 54.7292 865.306 55.0592 865.306 55.7192C865.306 56.2848 864.271 58.5004 862.203 62.3659C860.228 66.2313 858.442 68.164 856.844 68.164C856.562 68.164 856.138 67.7398 855.574 66.8913C855.01 66.0427 854.728 65.4771 854.728 65.1942C854.728 64.0629 856.185 62.0359 859.1 59.1132Z" fill="#4488EE"/>
</svg>
