<svg width="900" height="160" viewBox="0 0 900 160" fill="none" xmlns="http://www.w3.org/2000/svg">
<path d="M86.6491 158.104C85.1967 158.104 83.7443 157.839 82.2919 157.313C80.8395 156.785 79.4421 155.995 78.1011 154.941C76.6487 153.676 75.5879 152.043 74.9174 150.04C74.2469 148.142 73.9116 146.035 73.9116 143.716C73.9116 140.343 74.3582 136.759 75.2527 132.965C76.1458 129.17 77.1516 125.428 78.2687 121.739C79.4985 118.156 80.5593 115.047 81.4537 112.412C82.2356 110.198 83.2414 107.511 84.4698 104.348C85.6996 101.08 86.9843 97.7607 88.3254 94.388C89.7778 91.0153 91.0062 88.1157 92.012 85.6918C90.6722 85.7968 88.7157 86.0081 86.1462 86.3244C83.688 86.5356 81.0622 86.7988 78.2687 87.115C75.4753 87.4313 72.9621 87.7476 70.7266 88.0638C68.6037 88.2739 67.2639 88.4851 66.7047 88.6964C65.5876 89.7502 64.3028 91.0153 62.8504 92.4904C61.398 93.8604 59.8894 95.3367 58.3244 96.9169C56.2015 99.1307 54.0235 101.345 51.788 103.557C49.5538 105.771 47.4309 107.774 45.4193 109.565C35.4753 118.208 26.4807 122.53 18.4357 122.53C12.1796 122.53 7.54217 120.58 4.52479 116.68C1.5087 112.675 0 107.879 0 102.292C0 99.0257 0.502916 95.6518 1.50871 92.1741C2.5145 88.5901 4.0782 85.1643 6.20111 81.8978C8.43535 78.2089 11.3414 74.2555 14.9167 70.0403C18.6033 65.8238 22.6815 61.8704 27.1513 58.1815C31.621 54.4925 36.2571 51.4892 41.0622 49.1703C45.8672 46.8514 50.5033 45.6918 54.973 45.6918C56.2015 45.6918 57.3749 45.8498 58.492 46.1661C59.7217 46.482 60.057 47.1677 59.4978 48.2215L56.6494 48.5377C53.8559 48.854 50.5596 50.066 46.7603 52.1736C43.0737 54.1762 39.3308 56.8114 35.5316 60.0791C31.8437 63.2417 28.212 66.8245 24.6368 70.8297C22.8491 72.8323 21.1741 74.8881 19.6091 76.9957C18.1567 78.9983 16.7607 81.0541 15.4196 83.1617C9.49746 92.016 6.53637 100.026 6.53637 107.194C6.53637 110.251 7.31824 112.622 8.88323 114.309C10.4469 115.995 12.5135 116.838 15.0843 116.838C17.7651 116.838 20.7262 115.942 23.9662 114.151C28.8826 111.41 32.8494 108.723 35.8668 106.087C38.8829 103.347 41.7877 100.501 44.5811 97.5494C45.3643 96.7068 46.2012 95.8099 47.0956 94.8624C47.9901 93.9136 48.9396 92.9116 49.9453 91.8578L46.0898 92.6485C44.6374 92.9648 43.2414 93.176 41.9003 93.281C40.6706 93.386 39.4972 93.4391 38.38 93.4391C34.9161 93.4391 32.2915 92.8597 30.5026 91.6997C28.8276 90.5408 27.9894 89.2758 27.9894 87.9057C27.9894 85.4806 29.7208 83.478 33.1847 81.8978C34.4145 81.4753 35.6429 81.1591 36.8726 80.949C38.1011 80.6328 39.2745 80.3696 40.3916 80.1584L46.4251 79.0514C46.5364 79.0514 46.5927 79.0514 46.5927 79.0514C46.704 78.9464 46.8166 78.8933 46.928 78.8933C47.7098 78.8933 48.1014 79.2096 48.1014 79.8421C48.1014 80.5797 47.7098 80.949 46.928 80.949C46.4814 81.0541 45.8671 81.2653 45.084 81.5816C47.4309 81.3703 50.2806 81.0541 53.632 80.6328C56.9846 80.1053 59.3865 79.684 60.8389 79.3677C65.8665 74.8349 70.9505 69.4077 76.0908 63.0836C81.2298 56.7595 86.0911 50.2241 90.6722 43.4783C95.3646 36.7326 99.3315 30.4612 102.572 24.6641L108.437 14.0712L115.477 1.42296C115.923 0.474278 116.426 0 116.985 0C117.543 0 117.935 0.316142 118.157 0.948555C118.381 1.47559 118.325 2.05537 117.99 2.68766C112.516 14.809 106.371 27.2991 99.5542 40.1581C92.7388 52.9124 84.8051 65.6656 75.7556 78.4189C76.3135 78.3139 76.984 78.2608 77.7658 78.2608C78.6603 78.2608 79.4985 78.2089 80.2803 78.1026C84.8614 77.9976 88.3254 77.8926 90.6722 77.7864C93.0178 77.6814 94.5265 77.5763 95.197 77.4701C96.9846 73.3598 98.9399 68.6171 101.063 63.2417C103.186 57.7602 105.141 52.1736 106.929 46.482C108.716 40.6852 110.114 35.2043 111.118 30.0395C112.237 24.8749 112.627 20.5007 112.292 16.917C112.739 16.7062 113.186 16.4427 113.633 16.1265C114.192 15.7049 114.75 15.2833 115.309 14.8616C116.537 14.0185 117.711 13.5968 118.828 13.5968C121.734 13.5968 123.744 15.0198 124.861 17.8657C126.091 20.6061 126.705 23.4519 126.705 26.4032C126.705 29.0382 126.202 32.2003 125.197 35.8894C124.192 39.5785 122.906 43.4257 121.342 47.4308C119.89 51.4361 118.27 55.3363 116.482 59.1303C113.8 64.9281 111.398 69.8821 109.275 73.9924C108.94 74.6249 108.605 75.2574 108.27 75.89C108.046 76.4163 107.823 76.8907 107.599 77.312C110.617 77.4182 113.744 77.8395 116.985 78.577C120.225 79.3146 122.962 80.4746 125.197 82.056C127.544 83.5311 128.717 85.6387 128.717 88.3801C128.717 90.0665 128.438 91.3315 127.879 92.1741C127.32 92.9117 126.762 93.281 126.202 93.281C125.756 93.281 125.364 93.0698 125.029 92.6485C124.806 92.2272 124.806 91.6466 125.029 90.909C125.364 90.3827 125.364 89.8552 125.029 89.3277C124.247 88.1689 122.627 87.3782 120.169 86.9569C117.711 86.4294 114.974 86.1662 111.956 86.1662C108.94 86.0612 106.203 86.0081 103.745 86.0081C102.739 87.6945 101.342 90.3827 99.5542 94.0717C97.8778 97.7607 96.0902 101.819 94.1912 106.246C92.2922 110.567 90.5596 114.677 88.9959 118.578C87.4309 122.478 86.3138 125.534 85.6433 127.747C82.2919 137.971 80.6156 144.981 80.6156 148.775C80.6156 150.778 81.1185 151.885 82.1243 152.096C84.3585 152.517 86.649 151.831 88.9959 150.04C91.3415 148.354 93.7446 146.403 96.2028 144.19C97.3199 143.346 98.3807 142.451 99.3865 141.502C100.392 140.659 101.398 139.869 102.404 139.131C103.074 138.92 103.465 138.815 103.577 138.815C104.135 138.815 104.47 139.025 104.582 139.447C104.806 139.869 104.638 140.343 104.08 140.869L103.913 141.028C103.353 141.555 102.572 142.504 101.566 143.874C100.671 145.349 99.7781 146.825 98.8836 148.301C98.1017 149.777 97.4875 150.883 97.0409 151.621C94.8054 155.943 91.3415 158.104 86.6491 158.104Z" fill="#1CDAD9"/>
<path d="M155.203 145.139C152.745 145.139 150.622 144.242 148.834 142.451C147.158 140.764 146.487 138.287 146.822 135.02C147.27 131.647 148.499 127.326 150.51 122.055C152.521 116.891 154.979 111.093 157.885 104.664C155.649 107.721 153.136 110.619 150.343 113.36C147.661 116.1 144.812 118.366 141.795 120.159C138.777 121.845 135.705 122.688 132.576 122.688C125.65 122.688 122.186 119.578 122.186 113.36C122.186 112.938 122.186 112.517 122.186 112.095C122.186 111.674 122.242 111.251 122.353 110.83C122.689 108.195 123.582 105.192 125.035 101.819C126.488 98.4451 127.773 95.9161 128.89 94.2298C131.794 89.9083 135.315 85.6918 139.448 81.5816C143.694 77.3651 148.163 73.8873 152.856 71.146C157.661 68.4058 162.298 67.0357 166.767 67.0357C169.56 67.0357 172.297 67.5632 174.979 68.617C177.549 63.663 180.12 58.9721 182.689 54.5456C185.259 50.1191 187.606 46.2715 189.729 43.004C193.415 36.9961 196.823 32.4112 199.952 29.2491C203.08 25.9815 206.153 23.6628 209.17 22.2926C212.299 20.9222 215.482 20.0263 218.724 19.6048L219.561 20.8696C212.075 29.8288 205.427 38.6299 199.616 47.2727C193.807 55.8107 188.164 65.0331 182.689 74.9412C182.801 75.2574 182.857 75.7318 182.857 76.3644C182.857 78.1557 182.019 79.2096 180.342 79.5258C179.114 81.7397 177.605 84.5849 175.818 88.0638C174.03 91.5415 172.131 95.3886 170.119 99.6051C168.219 103.822 166.32 108.143 164.421 112.57C162.634 116.891 161.125 120.949 159.895 124.743C159.113 127.379 158.443 129.486 157.885 131.068C157.437 132.649 157.214 133.861 157.214 134.703C157.214 136.706 159.673 135.231 164.589 130.277L172.465 122.371C173.695 121.213 174.756 120.159 175.65 119.21C176.544 118.261 177.27 117.471 177.829 116.838L190.231 103.241C191.349 101.976 192.466 100.764 193.583 99.6051C194.7 98.3401 195.762 97.1281 196.768 95.9681C197.214 95.4417 197.774 95.1786 198.444 95.1786C199.673 95.1786 200.287 95.8099 200.287 97.075C200.287 97.7075 199.951 98.4451 199.281 99.2889C198.164 100.764 196.879 102.292 195.427 103.874C194.086 105.455 192.801 106.93 191.572 108.3C191.237 108.616 190.286 109.671 188.723 111.463C187.159 113.254 185.315 115.468 183.192 118.103C181.069 120.633 178.89 123.267 176.656 126.009C174.42 128.854 172.354 131.437 170.455 133.755C168.554 136.074 167.102 137.866 166.096 139.131C164.533 141.134 162.745 142.609 160.733 143.558C158.834 144.612 156.99 145.139 155.203 145.139ZM133.917 117.312C135.594 117.312 138.163 115.995 141.627 113.36C143.974 111.674 146.6 109.407 149.505 106.562C152.521 103.61 155.314 100.712 157.885 97.8657C160.566 95.0205 162.521 92.8066 163.751 91.2253C164.979 88.1688 166.377 85.1124 167.94 82.056C169.505 78.8933 171.125 75.6787 172.8 72.411C172.465 72.306 172.13 72.2529 171.796 72.2529C171.46 72.1479 171.125 72.0948 170.79 72.0948C167.997 72.0948 164.812 73.3598 161.236 75.89C157.661 78.3139 154.365 81.054 151.348 84.1105C147.661 87.6944 144.253 91.6465 141.124 95.9681C137.996 100.29 135.65 104.348 134.085 108.143C132.744 111.093 132.073 113.412 132.073 115.099C132.073 116.575 132.689 117.312 133.917 117.312Z" fill="#1CDAD9"/>
<path d="M206.846 148.617C199.807 148.617 196.287 145.402 196.287 138.973C196.287 137.181 196.622 135.126 197.292 132.807C198.298 129.118 199.862 125.165 201.985 120.948C204.22 116.733 206.176 113.412 207.852 110.988C209.192 109.091 210.533 107.141 211.874 105.139C213.215 103.136 214.611 101.08 216.063 98.9726L224.276 86.6406C225.728 84.3217 226.455 82.161 226.455 80.1584C226.455 77.8395 225.506 76.1 223.606 74.9412L221.26 73.518L219.919 72.7273L218.075 75.5737C217.293 76.8376 216.511 77.9976 215.728 79.0514C213.383 82.1079 210.7 85.4806 207.684 89.1708C204.667 92.8597 201.762 96.3905 198.969 99.7633C196.175 103.136 193.828 105.824 191.929 107.827C191.37 108.353 190.812 108.616 190.253 108.616C189.695 108.616 189.192 108.406 188.744 107.985C188.187 107.457 187.908 106.93 187.908 106.404C187.908 105.982 188.13 105.56 188.577 105.139C192.935 100.501 197.125 95.758 201.148 90.909C205.281 86.0612 209.024 80.8959 212.377 75.4156L214.221 72.411L216.063 69.5658C215.17 68.8271 214.332 67.7733 213.55 66.4032C212.88 64.9281 212.544 63.558 212.544 62.2929C212.544 61.3441 212.768 60.5003 213.215 59.7628C213.661 59.0252 214.443 58.6039 215.56 58.4977H215.896C217.461 58.4977 218.745 59.2365 219.751 60.7116C220.98 62.1867 221.595 64.9281 221.595 68.9333C223.048 69.8821 224.5 70.6197 225.952 71.146C227.405 71.6735 228.746 72.1479 229.974 72.5692C232.21 73.3067 234.109 74.1505 235.672 75.0993C237.349 76.0481 238.187 77.8395 238.187 80.4746C238.187 80.8959 238.131 81.4234 238.019 82.056C238.019 82.5823 237.963 83.1098 237.852 83.6361C237.405 85.7449 236.288 88.327 234.5 91.3834C232.824 94.3348 230.869 97.4444 228.634 100.712C226.399 103.874 224.22 106.878 222.097 109.723C221.428 110.567 220.812 111.41 220.254 112.253C219.695 112.991 219.137 113.782 218.578 114.625C208.969 129.276 204.611 138.446 205.505 142.135C205.729 142.767 206.231 143.083 207.014 143.083C208.689 143.083 210.7 142.451 213.047 141.186C216.399 139.394 219.527 137.392 222.432 135.178C225.338 133.07 228.354 130.488 231.483 127.431C233.717 125.428 236.623 122.478 240.199 118.577C243.774 114.677 247.293 110.883 250.757 107.194C251.316 106.456 251.874 105.771 252.433 105.139C253.104 104.506 253.718 103.874 254.277 103.241C255.17 101.976 256.287 100.712 257.628 99.447L260.981 95.9681C261.428 95.4418 261.931 95.1786 262.488 95.1786C263.718 95.1786 264.332 95.8099 264.332 97.075C264.332 97.7075 263.997 98.4451 263.327 99.2889C262.21 100.764 260.925 102.292 259.472 103.874C258.131 105.455 256.847 106.93 255.617 108.3C254.5 109.565 253.271 110.883 251.93 112.253C250.702 113.623 249.472 115.047 248.244 116.522C244.444 120.738 240.534 125.007 236.511 129.328C232.489 133.755 228.69 137.497 225.114 140.553C222.545 142.662 219.806 144.507 216.902 146.088C214.108 147.774 210.757 148.617 206.846 148.617Z" fill="#1CDAD9"/>
<path d="M292.964 52.9643C291.512 52.9643 290.283 52.543 289.278 51.6992C288.272 50.7516 287.769 49.5916 287.769 48.2215C287.769 46.4296 288.439 44.9013 289.78 43.6365C291.121 42.3716 292.685 41.7392 294.473 41.7392C296.261 41.7392 297.602 42.3189 298.496 43.4783C299.501 44.6378 299.892 46.008 299.668 47.5889C299.222 49.1703 298.383 50.4872 297.155 51.5411C295.925 52.4899 294.529 52.9643 292.964 52.9643ZM265.813 122.055C262.686 122.055 260.282 121.106 258.607 119.21C257.042 117.207 256.26 114.467 256.26 110.988C256.26 109.407 256.428 107.669 256.763 105.771C257.21 103.557 258.048 100.922 259.277 97.8657C260.618 94.7042 262.126 91.5415 263.803 88.3801C265.479 85.2174 266.986 82.5303 268.327 80.3165C269.557 78.3139 271.01 75.995 272.685 73.3598C274.473 70.6197 275.926 68.3008 277.043 66.4032C277.936 65.0331 278.552 64.1893 278.887 63.8743C279.669 62.3979 281.121 61.2391 283.244 60.3953C285.367 59.4465 287.322 58.9721 289.11 58.9721C291.457 58.9721 292.629 59.6578 292.629 61.0279C292.629 61.6604 292.295 62.4511 291.624 63.3999C289.501 66.6663 286.987 70.4615 284.082 74.783C281.289 78.9983 278.552 83.3729 275.87 87.9057C273.187 92.4372 270.953 96.7587 269.166 100.87C267.489 104.875 266.651 108.301 266.651 111.146C266.651 114.098 267.825 115.573 270.171 115.573C271.735 115.573 273.635 114.782 275.87 113.202C278.104 111.621 280.283 109.829 282.406 107.827C284.529 105.824 286.149 104.243 287.266 103.083L290.619 99.7633C291.177 99.2357 291.679 98.7094 292.127 98.1819C292.574 97.5494 293.02 96.97 293.467 96.4425C293.802 95.9162 294.25 95.6518 294.808 95.6518C296.149 95.6518 296.82 96.3906 296.82 97.8657C296.82 98.6032 296.541 99.2357 295.982 99.7633C294.753 101.238 293.523 102.662 292.295 104.032C291.065 105.402 289.78 106.772 288.439 108.143C286.54 110.251 284.417 112.412 282.071 114.625C279.724 116.733 277.211 118.524 274.529 120.001C271.848 121.371 268.942 122.055 265.813 122.055Z" fill="#1CDAD9"/>
<path d="M328.712 122.688C326.478 122.688 324.634 121.897 323.181 120.317C321.84 118.736 321.17 116.522 321.17 113.677C321.17 111.674 321.505 109.513 322.176 107.194C322.4 106.351 322.957 104.927 323.852 102.925C324.858 100.817 325.862 98.7094 326.868 96.6006C327.203 96.0743 327.484 95.5468 327.706 95.0205C324.466 99.0257 320.891 102.608 316.98 105.771C313.07 108.828 308.935 110.356 304.578 110.356C300.779 110.251 298.097 109.302 296.533 107.511C294.968 105.613 294.186 103.347 294.186 100.712C294.186 97.7606 294.857 94.5461 296.198 91.0671C297.65 87.5894 299.214 84.533 300.89 81.8978C303.795 77.5763 307.315 73.3598 311.45 69.2496C315.696 65.0331 320.22 61.5554 325.025 58.814C329.829 56.0738 334.41 54.7037 338.767 54.7037C343.684 54.7037 348.154 56.232 352.175 59.2884C353.181 60.0259 353.852 60.8166 354.187 61.6604C354.634 62.503 354.857 63.2417 354.857 63.8742C354.857 64.8218 354.579 65.6125 354.019 66.245C353.461 66.8776 352.791 67.1938 352.009 67.1938C350.779 67.1938 349.83 66.3501 349.159 64.6637C348.489 62.8723 347.596 61.6073 346.477 60.8697C345.36 60.1322 344.132 59.7628 342.79 59.7628C340.108 59.7628 337.036 60.9228 333.572 63.2417C330.108 65.5606 326.7 68.4058 323.349 71.7785C319.439 75.4675 315.975 79.5258 312.957 83.9524C310.052 88.2739 307.818 92.2272 306.253 95.8099C304.801 98.8676 304.075 101.186 304.075 102.767C304.075 104.243 304.689 104.98 305.918 104.98C307.594 104.98 310.164 103.663 313.628 101.028C316.086 99.2357 318.712 96.9169 321.505 94.0717C324.41 91.2253 327.148 88.3801 329.718 85.5337C332.287 82.6885 334.299 80.4746 335.751 78.8933C336.31 78.0507 336.812 77.2601 337.26 76.5225C337.818 75.7837 338.321 75.1512 338.767 74.6249C339.997 73.0436 341.896 72.2529 344.467 72.2529C346.142 72.2529 347.539 72.6223 348.656 73.3598C349.886 74.0974 350.22 75.0993 349.662 76.3644C349.327 76.8907 348.88 77.6813 348.321 78.7352C347.762 79.684 347.093 80.8959 346.31 82.3722C344.857 84.9011 343.237 87.8526 341.449 91.2253C339.662 94.598 337.986 97.7606 336.422 100.712C334.857 103.663 333.685 105.982 332.902 107.669C331.227 110.83 330.388 113.096 330.388 114.467C330.388 115.415 330.779 115.889 331.562 115.889C331.897 115.889 332.287 115.784 332.734 115.573C333.293 115.363 333.907 115.099 334.578 114.782C336.589 113.728 338.767 112.253 341.114 110.356C343.461 108.458 345.974 106.034 348.656 103.083C349.886 101.924 351.003 100.817 352.009 99.7633C353.014 98.6032 353.964 97.4975 354.857 96.4425C355.193 95.9162 355.639 95.6518 356.199 95.6518C357.54 95.6518 358.21 96.3906 358.21 97.8657C358.21 98.6032 357.93 99.2357 357.372 99.7633C356.142 101.238 354.914 102.662 353.684 104.032C352.456 105.402 351.171 106.772 349.83 108.143C348.6 109.513 347.315 110.883 345.974 112.253C344.746 113.623 343.405 114.889 341.952 116.047C339.494 118.366 337.092 120.053 334.745 121.106C332.511 122.161 330.5 122.688 328.712 122.688Z" fill="#1CDAD9"/>
<path d="M388.246 122.213C384.222 122.213 382.212 119.631 382.212 114.467C382.212 110.883 383.329 106.772 385.563 102.134C387.798 97.3913 390.201 92.7016 392.77 88.0638C395.005 83.7423 397.016 79.684 398.804 75.89C400.704 72.0948 401.654 68.9333 401.654 66.4032C401.654 63.873 400.927 62.6092 399.474 62.6092C398.357 62.6092 396.849 63.2417 394.95 64.5056C392.938 65.8769 390.647 68.0895 388.078 71.146L384.893 74.783C384.446 75.4156 383.943 76.0481 383.384 76.6794C382.938 77.312 382.435 77.8926 381.877 78.4189C378.748 82.3191 375.508 86.4294 372.155 90.7509C368.915 94.9674 365.954 98.8676 363.272 102.45C360.703 106.034 358.747 108.933 357.406 111.146C356.289 113.149 354.893 114.151 353.217 114.151C352.1 114.151 351.15 113.728 350.367 112.886C349.585 111.937 349.195 110.725 349.195 109.249C349.195 108.406 349.363 107.511 349.697 106.562C351.932 102.662 354.055 98.6032 356.067 94.3879C358.077 90.1715 360.032 85.955 361.933 81.7397C363.496 78.2607 365.061 74.8881 366.625 71.6204C368.301 68.2477 369.921 65.0862 371.485 62.1348C372.491 60.3422 374.223 58.709 376.68 57.2339C379.138 55.7576 381.374 55.02 383.384 55.02C385.62 55.02 386.737 55.8107 386.737 57.392C386.737 58.5508 386.178 59.974 385.061 61.6604C383.497 63.9793 381.374 67.247 378.692 71.4622C376.122 75.5737 373.72 79.5789 371.485 83.4779C372.491 82.2141 373.608 80.8428 374.838 79.3677C376.066 77.7864 377.407 76.1531 378.859 74.4668L384.222 68.4589C387.464 64.7699 390.647 62.0817 393.776 60.3953C396.905 58.604 400.034 57.7071 403.162 57.7071C408.637 57.7071 411.374 60.0791 411.374 64.8219C411.374 67.6683 410.759 70.4615 409.531 73.2017C408.301 75.9419 407.295 78.1026 406.514 79.684C401.486 89.8021 397.798 97.9707 395.452 104.19C393.217 110.409 392.659 113.518 393.776 113.518C394.893 113.518 396.626 112.78 398.971 111.305C401.43 109.723 404.391 107.562 407.855 104.822C409.642 103.241 411.43 101.555 413.218 99.7633C415.005 97.9707 416.849 96.0212 418.748 93.9135C419.53 93.0698 420.257 92.6485 420.927 92.6485C421.709 92.6485 422.101 93.2279 422.101 94.3879C422.101 95.5468 421.709 96.7068 420.927 97.8657C420.257 98.9195 419.14 100.343 417.575 102.134C416.122 103.822 414.614 105.455 413.05 107.036C407.576 112.622 401.709 116.996 395.452 120.159C394.447 120.685 393.552 121.055 392.77 121.265C392.1 121.581 391.486 121.792 390.926 121.897C390.48 122.003 390.033 122.055 389.587 122.055C389.251 122.161 388.804 122.213 388.246 122.213Z" fill="#1CDAD9"/>
<path d="M451.793 122.688C449.558 122.688 447.715 121.897 446.263 120.317C444.922 118.736 444.251 116.522 444.251 113.677C444.251 111.674 444.586 109.513 445.257 107.194C445.48 106.351 446.039 104.927 446.933 102.925C447.938 100.817 448.944 98.7094 449.949 96.6006C450.285 96.0743 450.564 95.5468 450.788 95.0205C447.548 99.0257 443.972 102.608 440.062 105.771C436.15 108.828 432.017 110.356 427.658 110.356C423.86 110.251 421.178 109.302 419.615 107.511C418.049 105.613 417.268 103.347 417.268 100.712C417.268 97.7606 417.938 94.5461 419.279 91.0671C420.732 87.5894 422.295 84.533 423.972 81.8978C426.876 77.5763 430.397 73.3598 434.53 69.2496C438.776 65.0331 443.302 61.5554 448.106 58.814C452.911 56.0738 457.492 54.7037 461.849 54.7037C466.765 54.7037 471.235 56.232 475.257 59.2884C476.263 60.0259 476.933 60.8166 477.268 61.6604C477.715 62.503 477.939 63.2417 477.939 63.8742C477.939 64.8218 477.66 65.6125 477.101 66.245C476.542 66.8776 475.872 67.1938 475.089 67.1938C473.861 67.1938 472.911 66.3501 472.241 64.6637C471.57 62.8723 470.676 61.6073 469.559 60.8697C468.441 60.1322 467.212 59.7628 465.872 59.7628C463.19 59.7628 460.117 60.9228 456.653 63.2417C453.189 65.5606 449.782 68.4058 446.43 71.7785C442.52 75.4675 439.056 79.5258 436.039 83.9524C433.134 88.2739 430.9 92.2272 429.335 95.8099C427.882 98.8676 427.155 101.186 427.155 102.767C427.155 104.243 427.771 104.98 428.999 104.98C430.676 104.98 433.245 103.663 436.709 101.028C439.167 99.2357 441.793 96.9169 444.587 94.0717C447.491 91.2253 450.228 88.3801 452.799 85.5337C455.369 82.6885 457.38 80.4746 458.833 78.8933C459.391 78.0507 459.894 77.2601 460.341 76.5225C460.899 75.7837 461.402 75.1512 461.849 74.6249C463.079 73.0436 464.977 72.2529 467.547 72.2529C469.223 72.2529 470.621 72.6223 471.738 73.3598C472.966 74.0974 473.301 75.0993 472.744 76.3644C472.408 76.8907 471.96 77.6813 471.403 78.7352C470.843 79.684 470.173 80.8959 469.391 82.3722C467.939 84.9011 466.319 87.8526 464.531 91.2253C462.743 94.598 461.067 97.7606 459.503 100.712C457.938 103.663 456.765 105.982 455.983 107.669C454.307 110.83 453.47 113.096 453.47 114.467C453.47 115.415 453.86 115.889 454.642 115.889C454.977 115.889 455.369 115.784 455.815 115.573C456.374 115.363 456.989 115.099 457.659 114.782C459.671 113.728 461.849 112.253 464.196 110.356C466.542 108.458 469.056 106.034 471.738 103.083C472.966 101.924 474.083 100.817 475.089 99.7633C476.095 98.6032 477.044 97.4975 477.939 96.4425C478.274 95.9162 478.721 95.6518 479.28 95.6518C480.62 95.6518 481.29 96.3906 481.29 97.8657C481.29 98.6032 481.011 99.2357 480.452 99.7633C479.224 101.238 477.995 102.662 476.765 104.032C475.537 105.402 474.251 106.772 472.911 108.143C471.682 109.513 470.397 110.883 469.056 112.253C467.827 113.623 466.486 114.889 465.034 116.047C462.576 118.366 460.174 120.053 457.827 121.106C455.593 122.161 453.581 122.688 451.793 122.688Z" fill="#1CDAD9"/>
<path d="M508.632 160C500.028 160 494.386 157.207 491.704 151.621C490.698 149.513 490.195 147.247 490.195 144.823C490.195 141.134 491.257 137.076 493.38 132.649C495.503 128.327 498.464 123.9 502.263 119.368C506.845 113.993 512.933 108.458 520.531 102.767C528.241 97.075 536.622 91.8047 545.671 86.9569C554.945 82.0029 563.995 77.9445 572.822 74.7831C581.761 71.6204 589.751 69.6178 596.79 68.7752C599.248 63.5049 601.091 58.0233 602.32 52.3317C603.549 46.5351 604.163 41.3703 604.163 36.8381C604.163 33.8868 603.884 31.3044 603.326 29.091C602.878 26.8775 602.096 25.1911 600.979 24.0317C595.504 24.5587 589.862 25.5073 584.051 26.8775C578.353 28.2478 572.99 30.0923 567.962 32.4112C563.046 34.6245 558.911 37.365 555.56 40.6325C552.207 43.9 550.085 47.7471 549.191 52.1736C549.191 52.5961 549.135 53.0174 549.024 53.4387C549.024 53.7549 549.024 54.1243 549.024 54.5456C549.024 55.3894 549.191 56.232 549.527 57.0757C549.862 57.9183 550.588 58.604 551.705 59.1303C552.375 59.5528 552.71 60.0791 552.71 60.7116C552.71 61.0279 552.488 61.291 552.04 61.5023C551.705 61.7135 551.258 61.7654 550.699 61.6604C549.359 61.3441 547.626 60.6066 545.504 59.4465C543.381 58.2877 541.482 56.7064 539.805 54.7037C538.129 52.5961 537.291 50.2241 537.291 47.589C537.291 47.2727 537.291 46.9564 537.291 46.6401C537.291 46.2189 537.347 45.8498 537.458 45.5337C539.023 37.8394 544.665 31.8841 554.387 27.668C564.219 23.4519 577.85 20.975 595.281 20.2372C595.281 20.1318 595.225 20.0263 595.114 19.9209C595.114 19.8155 595.114 19.7102 595.114 19.6048C595.114 18.7616 595.617 18.1818 596.622 17.8657C597.739 17.3387 598.968 17.0751 600.309 17.0751C603.326 17.0751 605.952 18.1291 608.186 20.2372C609.079 20.2372 609.918 20.2898 610.701 20.3953C611.483 20.3953 612.264 20.448 613.046 20.5533L616.064 20.7115C617.405 20.8169 618.577 20.9222 619.583 21.0277C620.7 21.0277 621.706 21.0277 622.6 21.0277C623.382 21.0277 624.109 21.0804 624.778 21.1858C625.561 21.1858 626.287 21.2385 626.957 21.3439C628.856 21.7655 629.807 22.4506 629.807 23.3993C629.807 23.9263 629.359 24.3478 628.466 24.6641C627.684 24.9802 626.511 25.033 624.946 24.8222C622.935 24.2952 620.756 23.9789 618.409 23.8735C616.064 23.7682 613.549 23.7154 610.867 23.7154C611.985 25.6126 612.767 27.8262 613.214 30.3558C613.773 32.8854 614.052 35.6786 614.052 38.7353C614.052 47.694 611.929 57.7071 607.683 68.7752C615.728 69.934 621.259 72.411 624.276 76.2063C625.058 77.2601 625.449 78.1558 625.449 78.8933C625.449 79.8421 625.002 80.3165 624.109 80.3165C623.55 80.3165 622.99 79.9471 622.432 79.2096C621.427 78.2608 619.192 77.5763 615.728 77.1538C612.376 76.6275 608.577 76.4694 604.331 76.6794C593.716 101.345 579.973 121.001 563.102 135.652C555.728 141.976 548.465 146.877 541.314 150.356C534.275 153.94 527.795 156.522 521.872 158.104C517.068 159.367 512.654 160 508.632 160ZM505.95 153.834C508.184 153.834 510.699 153.36 513.492 152.412C516.286 151.568 519.302 150.145 522.543 148.142C531.37 142.767 539.47 136.97 546.845 130.751C554.33 124.532 560.979 118.208 566.789 111.779C572.376 105.771 577.236 99.9214 581.37 94.2298C585.616 88.432 589.135 83.1098 591.929 78.2608C585.448 79.6309 578.577 81.6335 571.314 84.2686C564.052 86.9038 556.956 89.9083 550.03 93.281C542.542 97.075 535.336 101.291 528.409 105.929C521.481 110.567 515.448 115.521 510.307 120.791C505.392 125.744 501.816 130.277 499.581 134.387C497.347 138.499 496.23 142.03 496.23 144.981C496.23 147.721 497.123 149.882 498.911 151.463C500.587 153.043 502.934 153.834 505.95 153.834Z" fill="#1CDAD9"/>
<path d="M654.975 122.53C650.171 122.53 647.769 119.736 647.769 114.151C647.769 110.251 648.941 105.034 651.288 98.4982C649.165 101.345 646.763 104.19 644.081 107.036C641.512 109.881 638.942 112.253 636.371 114.151C633.802 116.047 631.4 116.996 629.164 116.996C625.701 116.996 623.299 115.889 621.958 113.676C620.729 111.463 620.115 108.986 620.115 106.245C620.115 104.453 620.226 102.715 620.45 101.028C620.785 99.3419 621.176 97.8656 621.622 96.6005C623.745 91.1202 626.427 85.4286 629.667 79.5258C632.907 73.623 636.484 67.9314 640.395 62.451C644.305 56.8645 648.216 52.0686 652.126 48.0633C655.031 45.3229 657.322 43.9526 658.998 43.9526C660.115 43.9526 660.674 44.5324 660.674 45.6918C660.674 46.5351 660.283 47.7471 659.501 49.3284C658.719 50.8035 657.546 52.438 655.981 54.2293C654.752 55.5994 653.076 58.1295 650.953 61.8185C648.83 65.4025 646.539 69.4596 644.081 73.9923C641.734 78.5251 639.444 83.0566 637.21 87.5894C635.087 92.1209 633.299 96.0742 631.847 99.447C630.059 103.241 629.164 106.297 629.164 108.616C629.164 110.619 629.835 111.621 631.176 111.621C633.188 111.621 635.981 109.618 639.557 105.613C640.45 104.559 641.734 102.978 643.411 100.87C645.198 98.7613 647.042 96.4424 648.941 93.9135C650.953 91.3834 652.852 88.9063 654.64 86.4824C656.428 83.9523 657.824 81.8447 658.83 80.1583L662.685 73.6761C663.244 72.516 664.361 71.5684 666.037 70.8297C667.825 69.9871 669.612 69.5658 671.4 69.5658C672.964 69.5658 673.747 70.3034 673.747 71.7785C673.747 73.0435 673.467 74.3086 672.909 75.5737C672.461 76.8375 671.792 78.2088 670.897 79.6839C669.334 82.2141 667.714 85.2174 666.037 88.6963C664.472 92.069 663.132 95.3367 662.014 98.4982C660.897 101.661 660.171 104.243 659.836 106.245C659.612 107.299 659.444 108.301 659.333 109.249C659.221 110.093 659.166 110.935 659.166 111.779C659.166 112.728 659.221 113.412 659.333 113.835C659.556 114.782 659.891 115.257 660.339 115.257C660.786 115.257 661.232 115.098 661.679 114.782C663.69 113.728 665.87 112.253 668.215 110.356C670.562 108.458 673.076 106.034 675.757 103.083C676.987 101.924 678.048 100.817 678.942 99.7632C679.948 98.6032 680.898 97.4974 681.791 96.4424C682.126 95.9161 682.629 95.6517 683.299 95.6517C684.64 95.6517 685.311 96.3905 685.311 97.8656C685.311 98.4981 684.976 99.1307 684.305 99.7632C683.188 101.133 681.958 102.503 680.619 103.873C679.389 105.244 678.16 106.667 676.931 108.143C674.472 110.777 671.847 113.412 669.053 116.047C666.93 118.05 664.585 119.631 662.014 120.791C659.445 121.95 657.098 122.53 654.975 122.53Z" fill="#1CDAD9"/>
<path d="M679.056 149.882C676.263 149.882 674.14 148.828 672.687 146.719C671.122 144.717 670.341 141.924 670.341 138.34C670.341 137.497 670.397 136.548 670.508 135.494C670.621 134.44 670.787 133.386 671.011 132.333C672.91 122.636 675.76 112.465 679.559 101.819C683.47 91.1733 688.33 80.5796 694.141 70.0402C691.012 70.9878 688.107 71.6735 685.425 72.0947C682.855 72.516 680.509 72.7273 678.386 72.7273C675.927 72.7273 674.14 72.4641 673.023 71.9366C671.906 71.3041 671.346 70.7247 671.346 70.1983C671.346 69.1433 672.464 68.617 674.699 68.617C675.257 68.617 675.816 68.6689 676.374 68.7752C676.933 68.7752 677.436 68.7752 677.883 68.7752C682.91 68.7752 689.279 67.352 696.989 64.5056C703.47 53.4386 710.397 43.3202 717.771 34.1503C725.146 24.8748 732.799 16.8116 740.733 9.96046C743.973 7.22005 747.102 5.21743 750.118 3.95261C753.247 2.58228 756.04 1.89723 758.498 1.89723C761.403 1.89723 763.806 2.8458 765.705 4.74303C767.717 6.53489 768.723 9.3808 768.723 13.2807C768.723 15.3887 768.22 17.6548 767.214 20.0791C764.309 26.9302 758.61 33.7286 750.118 40.4744C747.995 42.1609 745.817 43.7946 743.582 45.3755C741.347 46.9564 739.113 48.4846 736.878 49.9609C732.185 52.9123 727.269 55.7044 722.129 58.3396C717.101 60.9747 712.13 63.2417 707.213 65.1381C699.615 77.5763 693.581 89.697 689.112 101.503C684.308 114.467 681.793 125.534 681.571 134.703C681.571 138.92 682.575 141.028 684.587 141.028C685.257 141.028 685.984 140.869 686.766 140.553C687.548 140.237 688.497 139.869 689.614 139.447C692.967 137.55 695.872 135.6 698.33 133.598C700.788 131.594 703.246 129.276 705.705 126.641C706.598 125.692 707.716 124.427 709.056 122.846C710.509 121.265 712.073 119.473 713.75 117.471C715.76 115.152 717.828 112.728 719.951 110.198C722.185 107.669 724.252 105.35 726.152 103.241C728.386 100.712 730.621 98.2869 732.856 95.968C733.302 95.4417 733.805 95.1786 734.364 95.1786C735.704 95.1786 736.375 95.863 736.375 97.2331C736.375 97.9707 736.039 98.6563 735.37 99.2888C734.141 100.764 732.799 102.292 731.347 103.873C730.006 105.455 728.721 106.93 727.493 108.3C726.822 109.039 725.481 110.514 723.47 112.728C721.571 114.835 719.336 117.366 716.766 120.317C714.42 122.952 711.962 125.692 709.391 128.537C706.933 131.489 704.642 134.124 702.52 136.443C700.397 138.762 698.665 140.553 697.324 141.818C691.291 147.194 685.201 149.882 679.056 149.882ZM754.812 9.16991C747.884 14.3346 740.621 21.1857 733.023 29.7234C725.538 38.2609 718.386 47.8002 711.57 58.3396C716.822 55.8106 722.129 52.8592 727.493 49.4865C732.967 46.008 738.107 42.3189 742.911 38.419C747.716 34.5192 751.851 30.5665 755.315 26.5613C758.777 22.4506 761.18 18.4981 762.52 14.7036C762.968 13.4388 763.191 12.2266 763.191 11.0672C763.191 8.43212 762.074 7.11467 759.839 7.11467C758.274 7.11467 756.599 7.79971 754.812 9.16991Z" fill="#1CDAD9"/>
<path d="M764.83 52.9643C763.377 52.9643 762.149 52.543 761.143 51.6992C760.137 50.7516 759.635 49.5916 759.635 48.2215C759.635 46.4296 760.305 44.9013 761.646 43.6365C762.987 42.3716 764.551 41.7392 766.339 41.7392C768.126 41.7392 769.467 42.3189 770.362 43.4783C771.366 44.6378 771.758 46.008 771.534 47.5889C771.087 49.1703 770.249 50.4872 769.021 51.5411C767.791 52.4899 766.395 52.9643 764.83 52.9643ZM737.679 122.055C734.551 122.055 732.148 121.106 730.473 119.21C728.908 117.207 728.126 114.467 728.126 110.988C728.126 109.407 728.294 107.669 728.629 105.771C729.076 103.557 729.914 100.922 731.142 97.8657C732.483 94.7042 733.992 91.5415 735.668 88.3801C737.345 85.2174 738.852 82.5303 740.193 80.3165C741.423 78.3139 742.875 75.995 744.55 73.3598C746.339 70.6197 747.792 68.3008 748.909 66.4032C749.802 65.0331 750.417 64.1893 750.753 63.8743C751.534 62.3979 752.987 61.2391 755.11 60.3953C757.233 59.4465 759.188 58.9721 760.976 58.9721C763.322 58.9721 764.496 59.6578 764.496 61.0279C764.496 61.6604 764.161 62.4511 763.49 63.3999C761.367 66.6663 758.853 70.4615 755.948 74.783C753.154 78.9983 750.417 83.3729 747.735 87.9057C745.053 92.4372 742.819 96.7587 741.031 100.87C739.355 104.875 738.517 108.301 738.517 111.146C738.517 114.098 739.69 115.573 742.037 115.573C743.601 115.573 745.501 114.782 747.735 113.202C749.97 111.621 752.149 109.829 754.272 107.827C756.395 105.824 758.015 104.243 759.132 103.083L762.484 99.7633C763.042 99.2357 763.545 98.7094 763.993 98.1819C764.44 97.5494 764.886 96.97 765.333 96.4425C765.668 95.9162 766.116 95.6518 766.674 95.6518C768.015 95.6518 768.685 96.3906 768.685 97.8657C768.685 98.6032 768.406 99.2357 767.847 99.7633C766.619 101.238 765.389 102.662 764.161 104.032C762.931 105.402 761.646 106.772 760.305 108.143C758.406 110.251 756.283 112.412 753.936 114.625C751.589 116.733 749.076 118.524 746.394 120.001C743.713 121.371 740.807 122.055 737.679 122.055Z" fill="#1CDAD9"/>
<path d="M800.578 122.688C798.344 122.688 796.5 121.897 795.047 120.317C793.706 118.736 793.036 116.522 793.036 113.677C793.036 111.674 793.371 109.513 794.041 107.194C794.265 106.351 794.823 104.927 795.718 102.925C796.723 100.817 797.728 98.7094 798.734 96.6006C799.069 96.0743 799.349 95.5468 799.572 95.0205C796.332 99.0257 792.757 102.608 788.846 105.771C784.935 108.828 780.801 110.356 776.444 110.356C772.645 110.251 769.963 109.302 768.399 107.511C766.834 105.613 766.052 103.347 766.052 100.712C766.052 97.7606 766.723 94.5461 768.064 91.0671C769.516 87.5894 771.08 84.533 772.756 81.8978C775.661 77.5763 779.181 73.3598 783.316 69.2496C787.561 65.0331 792.086 61.5554 796.891 58.814C801.695 56.0738 806.276 54.7037 810.634 54.7037C815.549 54.7037 820.019 56.232 824.042 59.2884C825.047 60.0259 825.717 60.8166 826.053 61.6604C826.499 62.503 826.723 63.2417 826.723 63.8742C826.723 64.8218 826.444 65.6125 825.885 66.245C825.327 66.8776 824.657 67.1938 823.875 67.1938C822.645 67.1938 821.696 66.3501 821.025 64.6637C820.354 62.8723 819.461 61.6073 818.343 60.8697C817.226 60.1322 815.997 59.7628 814.656 59.7628C811.974 59.7628 808.902 60.9228 805.438 63.2417C801.974 65.5606 798.566 68.4058 795.215 71.7785C791.304 75.4675 787.84 79.5258 784.823 83.9524C781.918 88.2739 779.684 92.2272 778.119 95.8099C776.667 98.8676 775.941 101.186 775.941 102.767C775.941 104.243 776.555 104.98 777.784 104.98C779.46 104.98 782.029 103.663 785.493 101.028C787.952 99.2357 790.577 96.9169 793.371 94.0717C796.276 91.2253 799.014 88.3801 801.584 85.5337C804.153 82.6885 806.165 80.4746 807.617 78.8933C808.176 78.0507 808.678 77.2601 809.126 76.5225C809.684 75.7837 810.187 75.1512 810.634 74.6249C811.863 73.0436 813.762 72.2529 816.333 72.2529C818.008 72.2529 819.405 72.6223 820.522 73.3598C821.752 74.0974 822.086 75.0993 821.528 76.3644C821.193 76.8907 820.746 77.6813 820.187 78.7352C819.629 79.684 818.958 80.8959 818.175 82.3722C816.723 84.9011 815.103 87.8526 813.315 91.2253C811.528 94.598 809.851 97.7606 808.287 100.712C806.722 103.663 805.55 105.982 804.767 107.669C803.092 110.83 802.254 113.096 802.254 114.467C802.254 115.415 802.644 115.889 803.427 115.889C803.763 115.889 804.153 115.784 804.6 115.573C805.159 115.363 805.773 115.099 806.444 114.782C808.455 113.728 810.634 112.253 812.98 110.356C815.327 108.458 817.84 106.034 820.522 103.083C821.752 101.924 822.869 100.817 823.875 99.7633C824.879 98.6032 825.83 97.4975 826.723 96.4425C827.058 95.9162 827.505 95.6518 828.064 95.6518C829.405 95.6518 830.076 96.3906 830.076 97.8657C830.076 98.6032 829.796 99.2357 829.238 99.7633C828.008 101.238 826.78 102.662 825.55 104.032C824.321 105.402 823.037 106.772 821.696 108.143C820.466 109.513 819.181 110.883 817.84 112.253C816.612 113.623 815.27 114.889 813.818 116.047C811.36 118.366 808.958 120.053 806.611 121.106C804.377 122.161 802.365 122.688 800.578 122.688ZM823.707 46.6401C821.472 46.6401 819.629 46.2715 818.175 45.5337C816.836 44.6905 815.549 43.9 814.321 43.1622C813.091 42.3189 811.584 41.8973 809.796 41.8973C808.009 41.8973 806.611 42.5298 805.605 43.7946C804.712 44.954 803.93 45.8498 803.26 46.482C802.812 46.5882 802.422 46.5882 802.086 46.482C801.751 46.3769 801.584 46.2715 801.584 46.1661C801.584 44.9013 802.086 43.4783 803.092 41.8973C804.098 40.3163 805.383 38.9461 806.946 37.7866C808.623 36.5218 810.299 35.8894 811.974 35.8894C813.986 35.8894 815.83 36.311 817.505 37.1542C819.294 37.892 821.025 38.6825 822.701 39.5257C824.376 40.2636 826.053 40.6325 827.729 40.6325C828.957 40.6325 829.908 40.3163 830.579 39.6838C831.248 38.9461 832.031 37.734 832.924 36.0475C833.26 36.0475 833.538 36.1529 833.762 36.3637C834.098 36.4692 834.265 37.0488 834.265 38.1029C833.706 40.6325 832.199 42.6878 829.74 44.2689C827.394 45.8498 825.382 46.6401 823.707 46.6401Z" fill="#1CDAD9"/>
<path d="M838.994 122.688C834.859 122.688 831.451 121.055 828.769 117.787C826.2 114.519 824.915 110.461 824.915 105.613C824.915 101.608 825.586 97.8125 826.927 94.2298C829.607 87.2731 834.077 80.6859 840.335 74.4668C844.803 70.2503 849.441 66.8776 854.246 64.3474C859.162 61.7135 863.519 60.3953 867.318 60.3953C870.558 60.3953 873.128 61.186 875.028 62.7673C877.038 64.3475 878.044 66.245 878.044 68.4589C878.044 69.4077 877.765 70.5665 877.206 71.9366C878.436 72.0429 879.609 72.1479 880.726 72.2529C881.843 72.2529 882.961 72.2529 884.078 72.2529C886.313 72.2529 888.491 72.1479 890.614 71.9366C892.85 71.7266 894.972 71.4103 896.983 70.9878H897.821C899.273 70.9878 900 71.4622 900 72.411C900 73.1486 899.33 73.7811 897.988 74.3086C896.871 74.7299 895.027 75.1512 892.458 75.5737C890 75.995 887.318 76.3644 884.413 76.6794C881.619 76.8907 879.106 76.9957 876.871 76.9957C876.089 76.9957 875.363 76.9957 874.693 76.9957C874.134 76.9957 873.631 76.9438 873.184 76.8376L872.514 77.1538C873.631 78.8402 874.19 81.2122 874.19 84.2686C874.19 88.4851 873.073 92.8597 870.837 97.3913C868.714 101.819 865.866 105.982 862.289 109.881C858.827 113.677 855.027 116.785 850.893 119.21C846.758 121.529 842.793 122.688 838.994 122.688ZM840.502 117.312C843.407 117.312 846.257 116.312 849.049 114.309C851.842 112.306 854.413 109.671 856.759 106.404C859.106 103.136 861.061 99.6051 862.625 95.8099C864.301 92.0159 865.363 88.3801 865.81 84.9011C865.921 84.2686 865.977 83.6892 865.977 83.1617C865.977 82.5304 865.977 82.0028 865.977 81.5816C865.977 80.0002 865.81 78.7352 865.474 77.7864H865.139C863.687 77.4701 862.625 77.1538 861.955 76.8376C861.285 76.4163 860.614 75.89 859.944 75.2574L859.776 75.0993C859.33 74.6768 859.049 74.3086 858.938 73.9924C858.938 73.5711 858.938 73.1486 858.938 72.7273C858.938 71.7785 859.33 71.0409 860.111 70.5134C860.893 69.8821 861.843 69.6709 862.96 69.8821L871.34 71.3041C872.235 69.6177 872.681 68.3008 872.681 67.352C872.681 65.2443 870.95 64.1893 867.486 64.1893C864.469 64.1893 861.172 65.6656 857.597 68.617C854.133 71.4622 850.782 75.0462 847.542 79.3677C844.413 83.5842 841.676 87.7994 839.329 92.0159C838.212 94.1236 837.262 96.7068 836.479 99.7633C835.697 102.715 835.306 105.56 835.306 108.3C835.306 110.83 835.697 112.991 836.479 114.782C837.374 116.47 838.715 117.312 840.502 117.312Z" fill="#1CDAD9"/>
</svg>
